<svg id="bold" height="512" viewBox="0 0 24 24" width="512" xmlns="http://www.w3.org/2000/svg"><path fill="#1565C0" d="m22.725 8.336.763-.763c.33-.33.512-.77.512-1.237 0-.468-.182-.907-.513-1.237l-1.586-1.586.806-.806c.391-.391.391-1.023 0-1.414s-1.023-.391-1.414 0l-.806.806-1.585-1.585c-.661-.661-1.813-.662-2.475 0l-.763.763-.262-.262c-.66-.661-1.813-.662-2.475 0l-.586.586c-.682.682-.682 1.792 0 2.475l3.086 3.086-8.268 8.268-3.086-3.09c-.681-.682-1.792-.68-2.474 0l-.586.586c-.331.331-.513.771-.513 1.238 0 .468.182.907.513 1.237l.263.263-.763.763c-.331.33-.513.77-.513 1.237 0 .468.182.907.513 1.237l1.586 1.586-.806.806c-.391.391-.391 1.023 0 1.414.195.195.451.293.707.293s.512-.098.707-.293l.806-.806 1.585 1.585c.331.332.77.514 1.238.514.467 0 .907-.182 1.237-.513l.763-.763.262.262c.331.331.77.513 1.238.513.467 0 .907-.182 1.237-.513l.586-.586c.682-.682.682-1.792 0-2.475l-3.086-3.086 8.268-8.268 3.086 3.086c.341.341.789.511 1.237.511s.896-.171 1.237-.512l.586-.586c.331-.331.513-.77.513-1.237 0-.468-.182-.907-.513-1.237z"/></svg>